HIERARCHY
ROOT Hips
{
	OFFSET 0.000000 0.000000 0.000000
	CHANNELS 6 Xposition Yposition Zposition Zrotation Yrotation Xrotation 
	JOINT LeftUpLeg_virtual
	{
		OFFSET 0.000000 0.000000 0.000000
		CHANNELS 3 Zrotation Yrotation Xrotation
		JOINT LeftUpLeg
		{
			OFFSET 8.479694 -4.795517 -0.379053
			CHANNELS 3 Zrotation Yrotation Xrotation
			JOINT LeftLeg
			{
				OFFSET 0.485052 -32.551468 0.112863
				CHANNELS 3 Zrotation Yrotation Xrotation
				JOINT LeftFoot
				{
					OFFSET 0.438033 -32.635670 -3.012641
					CHANNELS 3 Zrotation Yrotation Xrotation
					JOINT LeftToeBase
					{
						OFFSET 0.970169 -13.225353 11.864223
						CHANNELS 3 Zrotation Yrotation Xrotation
						End Site
						{
							OFFSET 0.000000 0.000000 0.000000
						}
					}
				}
			}
		}
	}
	JOINT RightUpLeg_virtual
	{
		OFFSET 0.000000 0.000000 0.000000
		CHANNELS 3 Zrotation Yrotation Xrotation
		JOINT RightUpLeg
		{
			OFFSET -8.479694 -4.795517 -0.379053
			CHANNELS 3 Zrotation Yrotation Xrotation
			JOINT RightLeg
			{
				OFFSET -0.484100 -32.551483 0.112903
				CHANNELS 3 Zrotation Yrotation Xrotation
				JOINT RightFoot
				{
					OFFSET -0.438985 -32.635651 -3.012681
					CHANNELS 3 Zrotation Yrotation Xrotation
					JOINT RightToeBase
					{
						OFFSET -0.970169 -13.225354 11.864223
						CHANNELS 3 Zrotation Yrotation Xrotation
						End Site
						{
							OFFSET 0.000000 0.000000 0.000000
						}
					}
				}
			}
		}
	}
	JOINT Spine_virtual
	{
		OFFSET 0.000000 0.000000 0.000000
		CHANNELS 3 Zrotation Yrotation Xrotation
		JOINT Spine
		{
			OFFSET 0.000000 7.722015 1.166203
			CHANNELS 3 Zrotation Yrotation Xrotation
			JOINT Spine1
			{
				OFFSET 0.000000 12.024086 0.248766
				CHANNELS 3 Zrotation Yrotation Xrotation
				JOINT Spine2
				{
					OFFSET -0.000000 11.503036 -0.491240
					CHANNELS 3 Zrotation Yrotation Xrotation
					JOINT Neck_virtual
					{
						OFFSET 0.000000 0.000000 0.000000
						CHANNELS 3 Zrotation Yrotation Xrotation
						JOINT Neck
						{
							OFFSET 0.000000 18.430687 -3.123054
							CHANNELS 3 Zrotation Yrotation Xrotation
							JOINT Head
							{
								OFFSET -0.000000 9.051071 1.034021
								CHANNELS 3 Zrotation Yrotation Xrotation
								End Site
								{
									OFFSET 0.000000 0.000000 0.000000
								}
							}
						}
					}
					JOINT LeftShoulder_virtual
					{
						OFFSET 0.000000 0.000000 0.000000
						CHANNELS 3 Zrotation Yrotation Xrotation
						JOINT LeftShoulder
						{
							OFFSET 6.197824 13.665230 -4.064723
							CHANNELS 3 Zrotation Yrotation Xrotation
							JOINT LeftArm
							{
								OFFSET 7.778132 -0.187073 -1.709282
								CHANNELS 3 Zrotation Yrotation Xrotation
								JOINT LeftForeArm
								{
									OFFSET 21.954697 0.000000 -2.041093
									CHANNELS 3 Zrotation Yrotation Xrotation
									JOINT LeftHand
									{
										OFFSET 22.992908 0.000000 -0.870901
										CHANNELS 3 Zrotation Yrotation Xrotation
										End Site
										{
											OFFSET 0.000000 0.000000 0.000000
										}
									}
								}
							}
						}
					}
					JOINT RightShoulder_virtual
					{
						OFFSET 0.000000 0.000000 0.000000
						CHANNELS 3 Zrotation Yrotation Xrotation
						JOINT RightShoulder
						{
							OFFSET -6.197824 13.665230 -4.064723
							CHANNELS 3 Zrotation Yrotation Xrotation
							JOINT RightArm
							{
								OFFSET -7.778132 -0.187073 -1.709282
								CHANNELS 3 Zrotation Yrotation Xrotation
								JOINT RightForeArm
								{
									OFFSET -21.954697 0.000000 -2.041093
									CHANNELS 3 Zrotation Yrotation Xrotation
									JOINT RightHand
									{
										OFFSET -22.992908 0.000000 -0.870901
										CHANNELS 3 Zrotation Yrotation Xrotation
										End Site
										{
											OFFSET 0.000000 0.000000 0.000000
										}
									}
								}
							}
						}
					}
				}
			}
		}
	}
}
MOTION
Frames: 10
Frame Time: 0.033333
15.367216 77.265335 80.240326 -179.920051 1.997993 179.893427 -5.707705 -2.492321 13.566689 13.193975 2.699984 -48.851323 6.339893 3.017881 52.317408 -0.900029 -1.820124 -9.657099 0.000000 0.000000 0.000000 0.372700 -3.980015 12.411315 7.862231 12.475056 -35.633319 1.523321 4.800136 33.802289 -1.955754 -5.059063 -14.006242 0.000000 0.000000 0.000000 0.478256 -0.283094 2.046434 0.652873 4.907128 -2.891031 2.565964 -0.728275 8.537421 -0.061996 0.024311 0.006621 2.254913 1.148371 14.258262 -5.460931 8.203219 -2.154405 0.000000 0.000000 0.000000 3.632155 1.983872 9.861246 28.362600 -16.865335 -14.038391 -78.938853 -8.820691 74.743286 -7.727562 -45.632419 26.391562 0.000000 0.000000 0.000000 -1.076181 3.951084 9.392802 37.110146 -0.958979 -16.893107 80.707810 38.001407 -1.112667 -174.317301 54.127449 -169.834853 0.000000 0.000000 0.000000 
15.820401 77.217514 80.380051 -179.942181 1.078728 179.891624 -5.892400 -2.222266 13.475186 13.731525 2.868041 -48.967730 5.795251 2.695720 52.081692 -1.456870 -2.014767 -9.658160 0.000000 0.000000 0.000000 0.254581 -3.716667 12.296094 8.543998 11.858850 -35.758499 1.401629 4.611113 33.926379 -2.697018 -5.014132 -13.731236 0.000000 0.000000 0.000000 0.078753 0.031586 1.924951 0.829543 4.616951 -2.856320 2.761576 -0.704039 8.395551 0.025602 0.040953 -0.003515 2.363079 1.018061 14.072802 -5.347359 8.339253 -1.946790 0.000000 0.000000 0.000000 3.760920 1.966000 9.688173 28.409185 -16.916138 -14.147452 -79.576239 -8.858599 75.226092 -8.104319 -45.470062 26.785657 0.000000 0.000000 0.000000 -1.019305 3.766121 9.235784 37.572679 -0.609719 -16.813651 81.810981 37.100590 -1.693422 -174.439985 52.110184 -169.297481 0.000000 0.000000 0.000000 
16.106304 77.140274 80.494377 179.962330 0.542208 179.947549 -6.085181 -2.100401 13.179311 14.049498 3.158447 -48.984754 5.342840 2.542671 52.086551 -1.787229 -2.185448 -9.812008 0.000000 0.000000 0.000000 0.149468 -3.467223 12.001301 8.988957 11.240984 -35.742114 1.290116 4.304419 34.262537 -3.364172 -4.787785 -13.567020 0.000000 0.000000 0.000000 -0.233603 0.131612 1.714661 1.032499 4.257732 -2.793869 2.868919 -0.741266 8.210887 -0.003397 0.016091 -0.033011 2.597236 1.326457 13.935430 -5.306195 8.542647 -1.803648 0.000000 0.000000 0.000000 3.947741 2.068224 9.530762 28.333168 -17.008223 -14.122617 -80.095231 -8.863929 75.593460 -8.307470 -45.210545 27.307463 0.000000 0.000000 0.000000 -0.870757 3.977893 9.034962 37.937767 -0.139674 -16.593052 82.403992 36.398672 -2.122379 -174.607980 50.431299 -168.683433 0.000000 0.000000 0.000000 
16.214806 77.050697 80.590202 -179.921676 0.182047 179.915857 -6.099160 -2.038569 12.851011 14.177453 3.558142 -48.918505 4.999895 2.460839 52.207384 -2.065105 -2.259561 -10.025117 0.000000 0.000000 0.000000 -0.000941 -3.405515 11.583505 9.602230 10.682833 -35.554591 1.181042 4.171471 34.609535 -3.656426 -4.357074 -13.474609 0.000000 0.000000 0.000000 -0.256853 0.157545 1.521558 1.377615 4.025783 -2.633049 2.969088 -0.709725 8.049705 -0.047693 0.086566 -0.041193 2.754838 1.184191 13.748842 -5.482028 8.589280 -1.796581 0.000000 0.000000 0.000000 4.047070 2.014614 9.396940 28.149037 -17.165169 -14.042936 -80.225729 -8.905557 75.793571 -8.301759 -44.682626 27.941267 0.000000 0.000000 0.000000 -0.733175 3.884545 8.864044 38.179436 0.354925 -16.570102 82.742571 35.761747 -2.406316 -174.539214 49.229869 -167.893945 0.000000 0.000000 0.000000 
16.210506 76.976532 80.646561 -179.956019 -0.129241 179.875545 -6.075630 -1.976477 12.603481 13.990315 3.965979 -48.802221 4.772716 2.540911 52.280679 -2.216650 -2.424501 -10.171154 0.000000 0.000000 0.000000 -0.250308 -3.443703 11.169629 10.121901 10.042133 -35.313120 1.075354 4.048526 35.021549 -3.734330 -3.861768 -13.486968 0.000000 0.000000 0.000000 -0.237507 0.207518 1.339790 1.657201 3.886223 -2.402205 3.024961 -0.897284 7.869397 0.030881 -0.027730 -0.030856 2.689579 0.952411 13.540346 -5.935643 8.999316 -2.009090 0.000000 0.000000 0.000000 4.015952 1.954382 9.218984 27.875411 -17.203927 -13.770145 -80.090293 -8.919458 75.745309 -7.909957 -43.948811 28.377669 0.000000 0.000000 0.000000 -0.801485 3.912953 8.669878 38.485322 1.031340 -16.347368 82.734102 35.652802 -2.950711 -174.463782 48.421376 -167.166407 0.000000 0.000000 0.000000 
16.144648 76.950211 80.704140 179.926881 -0.560930 179.824223 -5.940391 -1.818000 12.416892 13.504729 4.355507 -48.666317 4.600658 2.666706 52.056171 -2.317548 -2.789737 -10.212493 0.000000 0.000000 0.000000 -0.355942 -3.374606 10.899589 10.230601 9.302104 -35.268269 0.835165 3.722307 35.351287 -3.804171 -3.400903 -13.462076 0.000000 0.000000 0.000000 -0.151629 0.212413 1.252125 1.882111 3.610408 -2.078007 2.973693 -0.943216 7.688874 0.005479 0.008371 -0.010766 2.715813 1.212016 13.311249 -6.465830 9.395347 -2.450445 0.000000 0.000000 0.000000 4.049931 1.859411 9.023056 27.478671 -17.059057 -13.319721 -79.681001 -8.767373 74.924211 -7.422581 -43.466812 28.775351 0.000000 0.000000 0.000000 -0.745999 3.870821 8.489639 38.766484 1.706446 -16.225009 82.451182 35.651074 -3.710347 -174.145850 47.886825 -166.348547 0.000000 0.000000 0.000000 
16.051853 76.975700 80.780678 179.972725 -1.159957 179.835193 -5.609953 -1.585548 12.139366 12.829925 4.688420 -48.457146 4.578946 2.721096 51.545361 -2.520619 -3.276838 -10.245782 0.000000 0.000000 0.000000 -0.294925 -3.127096 10.622102 10.458696 8.376904 -35.254411 0.467282 3.466281 35.564925 -3.650189 -2.876271 -13.321471 0.000000 0.000000 0.000000 0.062156 0.576982 1.203051 2.153162 3.599014 -1.754454 2.927663 -0.997978 7.476375 0.038645 -0.119889 -0.007701 2.522604 0.670374 13.143071 -7.076779 9.689253 -3.150400 0.000000 0.000000 0.000000 3.911752 1.676301 9.014460 27.184640 -16.855973 -12.906020 -78.995536 -8.327302 73.464654 -6.912323 -43.435024 29.087433 0.000000 0.000000 0.000000 -0.867141 3.591404 8.374737 39.024880 2.157064 -16.224853 81.777445 36.105889 -4.956093 -173.732924 47.512022 -165.672440 0.000000 0.000000 0.000000 
15.819363 77.037285 80.842323 179.923111 -1.819836 179.749665 -5.217960 -1.359596 11.761890 11.842957 4.827669 -47.968507 4.646559 2.785429 50.852544 -2.580604 -3.923573 -10.323683 0.000000 0.000000 0.000000 -0.221720 -2.704552 10.232662 10.540255 7.175316 -35.252847 -0.186014 3.201692 36.214032 -3.292512 -2.268092 -13.268430 0.000000 0.000000 0.000000 0.275549 0.693749 1.278007 2.290105 3.436561 -1.386714 2.744732 -1.200969 7.282240 0.041365 0.038882 -0.042490 2.286042 0.680770 13.040044 -7.604669 10.040018 -4.028558 0.000000 0.000000 0.000000 3.777935 1.571382 9.012141 26.714210 -16.264757 -12.185279 -78.101267 -7.347181 71.295714 -6.671357 -44.260551 29.531402 0.000000 0.000000 0.000000 -1.025873 3.573563 8.327446 39.134358 2.379022 -16.510230 80.289024 36.683600 -7.127106 -173.264783 46.973076 -165.208875 0.000000 0.000000 0.000000 
15.308961 77.141647 80.870064 179.852227 -2.661586 179.835479 -4.875257 -1.077310 11.338987 10.426431 4.962622 -47.066311 4.808330 3.296996 50.333395 -2.470759 -4.310938 -10.458690 0.000000 0.000000 0.000000 0.079445 -2.292567 9.751897 10.313838 5.904424 -35.434482 -1.090858 3.122103 37.047479 -2.718356 -1.531338 -13.320238 0.000000 0.000000 0.000000 0.535995 0.877027 1.207542 2.294085 3.450376 -1.098688 2.487244 -1.308900 7.098211 0.044659 -0.002294 -0.045896 1.964449 0.505182 12.975527 -7.827336 9.961298 -5.039487 0.000000 0.000000 0.000000 3.527466 1.601028 9.060637 26.327644 -15.668688 -11.503281 -77.052525 -5.842502 69.198709 -6.486190 -45.999220 29.945824 0.000000 0.000000 0.000000 -1.288925 3.489225 8.266522 38.950438 2.110903 -16.838155 77.600190 37.590342 -10.674078 -172.845518 46.258781 -165.167348 0.000000 0.000000 0.000000 
14.613659 77.294312 80.813278 179.713888 -3.353784 179.893454 -4.539996 -0.864859 10.810245 8.845868 4.873945 -45.930519 5.028547 4.008957 49.656203 -2.420968 -4.770097 -10.523001 0.000000 0.000000 0.000000 0.293109 -1.600502 9.295802 9.402207 5.063132 -35.620789 -1.606995 2.642207 38.058299 -2.305767 -1.151785 -13.359869 0.000000 0.000000 0.000000 0.794762 1.019422 1.160232 2.111950 3.497360 -0.881555 2.173070 -1.338477 6.899456 0.044649 -0.015556 0.002912 1.644810 0.602043 12.953114 -7.623193 9.771400 -6.030257 0.000000 0.000000 0.000000 3.274891 1.613301 9.134029 26.036719 -14.983116 -10.752671 -75.777274 -4.041187 67.532703 -6.503640 -48.613137 30.455359 0.000000 0.000000 0.000000 -1.590213 3.447565 8.224869 38.285782 1.586584 -17.598170 74.317642 38.679372 -15.037235 -172.441322 45.396046 -165.469911 0.000000 0.000000 0.000000 
